<svg width="20" height="20" viewBox="0 0 20 20" fill="none" xmlns="http://www.w3.org/2000/svg">
<path fill-rule="evenodd" clip-rule="evenodd" d="M1 3.5C1 3.22386 1.22386 3 1.5 3H18.5C18.7761 3 19 3.22386 19 3.5V5.5C19 5.66246 18.9211 5.8148 18.7883 5.90848L10.2883 11.9085C10.1155 12.0305 9.88452 12.0305 9.71166 11.9085L1.21166 5.90848C1.07893 5.8148 1 5.66246 1 5.5V3.5ZM2 4V5.24092L10 10.888L18 5.24092V4H2ZM1.5 8C1.77614 8 2 8.22386 2 8.5V16H18V8.5C18 8.22386 18.2239 8 18.5 8C18.7761 8 19 8.22386 19 8.5V16.5C19 16.7761 18.7761 17 18.5 17H1.5C1.22386 17 1 16.7761 1 16.5V8.5C1 8.22386 1.22386 8 1.5 8Z" fill="black"/>
</svg>
