<svg width="20" height="20" viewBox="0 0 20 20" fill="none" xmlns="http://www.w3.org/2000/svg">
<path fill-rule="evenodd" clip-rule="evenodd" d="M4.54105 3.54105C4.20994 3.87216 4 4.36362 4 5V15C4 15.6364 4.20994 16.1278 4.54105 16.4589C4.87216 16.7901 5.36362 17 6 17H8V13H5.5C5.22386 13 5 12.7761 5 12.5V7.5C5 7.22386 5.22386 7 5.5 7H8V3H6C5.36362 3 4.87216 3.20994 4.54105 3.54105ZM3.83395 2.83395C4.37784 2.29006 5.13638 2 6 2H8.5C8.77614 2 9 2.22386 9 2.5V7.5C9 7.77614 8.77614 8 8.5 8H6V12H8.5C8.77614 12 9 12.2239 9 12.5V17.5C9 17.7761 8.77614 18 8.5 18H6C5.13638 18 4.37784 17.7099 3.83395 17.1661C3.29006 16.6222 3 15.8636 3 15V5C3 4.13638 3.29006 3.37784 3.83395 2.83395ZM15.6464 7.14645C15.8417 6.95118 16.1583 6.95118 16.3536 7.14645L18.8536 9.64645C19.0488 9.84171 19.0488 10.1583 18.8536 10.3536L16.3536 12.8536C16.1583 13.0488 15.8417 13.0488 15.6464 12.8536C15.4512 12.6583 15.4512 12.3417 15.6464 12.1464L17.2929 10.5H10C9.72386 10.5 9.5 10.2761 9.5 10C9.5 9.72386 9.72386 9.5 10 9.5H17.2929L15.6464 7.85355C15.4512 7.65829 15.4512 7.34171 15.6464 7.14645Z" fill="black"/>
</svg>
